# xmcd
#
# Track frame offsets:
#	150
#	12804
#	25234
#	38270
#	49574
#	64954
#	78101
#	92781
#	107075
#	124676
#	136309
#	155894
#	169009
#	180891
#	198647
#	213035
#	231030
#	242761
#	260064
#	281591
#	290806
#	302902
#	316725
#	330999
#	348399
#
# Disc length: 4795 seconds
#
# Revision: 0
# Processed by: cddbd v1.5.2PL0 Copyright (c) Steve Scherf et al.
# Submitted via: EasyCDDAExtractor 2010.6.0.0
#
DISCID=5712b919
DTITLE=Various Artist - Country Hits, Vol. 43
DYEAR=2010
DGENRE=Country
TTITLE0=Brooks and Dunn - She's About As Lonely As I'm Going To Let Her Get
TTITLE1=Alan Jackson - Dallas
TTITLE2=Diana Jones - Better Times Will Come
TTITLE3=Texas Tornados - Who Were You Thinkin' Of
TTITLE4=Martine McBride - Independence Day
TTITLE5=Brooks And Dunn - My Next Broken Heart
TTITLE6=Alan Jackson - I Don't Need The Booze (To Get A Buzz On)
TTITLE7=Drag The River - She Used To Smile
TTITLE8=Trace Adkins - Hell, I Can Do That
TTITLE9=Buddy Miller - Love Grows Wild
TTITLE10=Brooks and Dunn - Silver And Gold
TTITLE11=Alan Jackson - Just Playin' Possum
TTITLE12=Drag The River - Southbound Train
TTITLE13=Texas Tornados - If That's What You're Thinking
TTITLE14=Diana Jones - Evangelina
TTITLE15=Jill Johnson - Some People Are Just Not Cool
TTITLE16=Buddy Miller - Love Snuck Up
TTITLE17=Alan Jackson - Livin' On Love
TTITLE18=Brooks And Dunn - You're Gonna Miss Me When I'm Gone
TTITLE19=Drag The River - Bad Side Of A Good Time
TTITLE20=Billy Joe Shaver - Feliz Navidad
TTITLE21=Texas Tornados - Is Anybody Goin' To San Antone
TTITLE22=Diana Jones - Pretty Girl
TTITLE23=Brooks and Dunn - South Of Santa Fe
TTITLE24=Alan Jackson - Tall, Tall Trees
EXTD=
EXTT0=
EXTT1=
EXTT2=
EXTT3=
EXTT4=
EXTT5=
EXTT6=
EXTT7=
EXTT8=
EXTT9=
EXTT10=
EXTT11=
EXTT12=
EXTT13=
EXTT14=
EXTT15=
EXTT16=
EXTT17=
EXTT18=
EXTT19=
EXTT20=
EXTT21=
EXTT22=
EXTT23=
EXTT24=
PLAYORDER=
